Coordinates
version=1
nRows=29
nColumns=22
inDegrees=yes

Units are S.I. units (second, meters, Newtons, ...)
If the header above contains a line with 'inDegrees', this indicates whether rotational values are in degrees (yes) or radians (no).

endheader
time	pelvis_tilt	pelvis_list	pelvis_rotation	pelvis_tx	pelvis_ty	pelvis_tz	hip_flexion_r	hip_adduction_r	hip_rotation_r	knee_angle_r	ankle_angle_r	subtalar_angle_r	hip_flexion_l	hip_adduction_l	hip_rotation_l	knee_angle_l	ankle_angle_l	subtalar_angle_l	lumbar_extension	lumbar_bending	lumbar_rotation
      2.81000000	      1.83765023	     -0.87006446	     -3.16281320	      0.40650607	      0.92702129	      0.14616372	     12.80253417	     -1.61623899	      2.88793402	    -59.21749901	      1.15052002	     10.65850856	      8.33494492	      2.00714839	     -8.60280572	    -19.45463423	      7.91826272	     -2.42122260	     -8.77256221	     -2.20911137	      2.21575002
      2.82000000	      1.76007525	     -0.85166019	     -3.04227430	      0.40025219	      0.92687569	      0.14644209	     11.39656790	     -1.59275626	      2.68740100	    -58.72315080	      0.62248669	     11.70789508	      8.79610728	      1.93224761	     -8.59279197	    -19.34519021	      7.64328993	     -1.73120827	     -8.50018125	     -2.28878137	      2.37275473
      2.83000000	      1.67163989	     -0.84531912	     -2.91478546	      0.39387245	      0.92664829	      0.14679339	     10.00601344	     -1.51598859	      2.47789233	    -58.08150280	      0.06553224	     12.80638586	      9.29400052	      1.84439506	     -8.54989674	    -19.26544777	      7.36359655	     -1.09342892	     -8.23027658	     -2.36427415	      2.55149312
      2.84000000	      1.57068944	     -0.85349347	     -2.77829263	      0.38733284	      0.92631289	      0.14722211	      8.64293084	     -1.39098404	      2.24593500	    -57.29914785	     -0.46085219	     13.89273477	      9.84760702	      1.73553680	     -8.50526889	    -19.24689581	      7.09762533	     -0.51860074	     -7.96536474	     -2.43251695	      2.72009196
      2.85000000	      1.43444644	     -0.87150383	     -2.65673517	      0.38057644	      0.92583550	      0.14776378	      7.35719628	     -1.21941131	      2.02087997	    -56.39667058	     -0.96606758	     14.90840635	     10.47808854	      1.61216854	     -8.42795061	    -19.27631735	      6.82241486	     -0.01776915	     -7.68626041	     -2.50271113	      2.92776700
      2.86000000	      1.26173492	     -0.87018569	     -2.57400326	      0.37361426	      0.92519743	      0.14844990	      6.16046226	     -1.03405823	      1.83757417	    -55.38853780	     -1.33007567	     15.89078333	     11.18404614	      1.49345085	     -8.41957704	    -19.34832881	      6.49863909	      0.45627921	     -7.38329252	     -2.60663819	      3.14422972
      2.87000000	      1.06042318	     -0.90220515	     -2.49297017	      0.36641240	      0.92441813	      0.14922281	      5.04487169	     -0.79019162	      1.64472426	    -54.26244374	     -1.65501762	     16.63793099	     11.96319858	      1.33973931	     -8.34543337	    -19.47392492	      6.19810099	      0.81657620	     -7.07876579	     -2.68106408	      3.37203277
      2.88000000	      0.84351395	     -0.91462751	     -2.45254185	      0.35898324	      0.92349791	      0.15011171	      4.00991793	     -0.54109852	      1.51456245	    -53.04166029	     -1.80305841	     17.31395521	     12.79649128	      1.19467198	     -8.31585275	    -19.64173388	      5.85073988	      1.16437756	     -6.77975185	     -2.78674398	      3.62528051
      2.89000000	      0.62495967	     -0.92058711	     -2.43732949	      0.35132747	      0.92245477	      0.15106834	      3.04356114	     -0.28237714	      1.42842029	    -51.72704084	     -1.82951874	     17.87638789	     13.66539344	      1.05175586	     -8.28933732	    -19.84518183	      5.50313262	      1.48237406	     -6.50683037	     -2.90335976	      3.90789975
      2.90000000	      0.41260004	     -0.92141500	     -2.45153367	      0.34345770	      0.92130704	      0.15207697	      2.14014272	     -0.01513784	      1.39884187	    -50.31913875	     -1.75623603	     18.32896967	     14.55366091	      0.90890810	     -8.27978460	    -20.07145421	      5.14385404	      1.78364196	     -6.26639798	     -3.02376087	      4.21294779
      2.91000000	      0.21308597	     -0.91475242	     -2.49989885	      0.33537892	      0.92006752	      0.15316613	      1.29679387	      0.25761571	      1.43192935	    -48.82561543	     -1.59841257	     18.66178235	     15.44739736	      0.76326836	     -8.29911642	    -20.30843988	      4.77395385	      2.08132261	     -6.06337777	     -3.15512557	      4.53984275
      2.92000000	      0.02819234	     -0.90138496	     -2.58748733	      0.32708486	      0.91874404	      0.15433310	      0.51627418	      0.53520894	      1.53572005	    -47.25486405	     -1.36639417	     18.86224380	     16.33694542	      0.61246236	     -8.35380547	    -20.54275674	      4.40623991	      2.39574292	     -5.90227745	     -3.29174562	      4.88703376
      2.93000000	     -0.13951198	     -0.87948490	     -2.71896275	      0.31856241	      0.91734008	      0.15558877	     -0.19769069	      0.81176931	      1.70894592	    -45.62463955	     -1.05436264	     18.90492305	     17.21525543	      0.45541350	     -8.44507531	    -20.76616211	      4.04501472	      2.73566594	     -5.78716695	     -3.43588588	      5.25948438
      2.94000000	     -0.29325660	     -0.85270390	     -2.89931297	      0.30979274	      0.91585521	      0.15694774	     -0.83684090	      1.09387616	      1.96547680	    -43.95515990	     -0.66100252	     18.76022936	     18.08081562	      0.28475911	     -8.57489384	    -20.96923246	      3.71069882	      3.15662959	     -5.71678060	     -3.58291271	      5.65303046
      2.95000000	     -0.44383081	     -0.80550324	     -3.11853142	      0.30076389	      0.91428281	      0.15840066	     -1.38141901	      1.36230159	      2.28528994	    -42.28118309	     -0.17640173	     18.29060239	     18.93038759	      0.12480738	     -8.69083551	    -21.11898320	      3.37345721	      3.74596157	     -5.67768780	     -3.75200999	      6.04878424
      2.96000000	     -0.56750973	     -0.73555190	     -3.40207476	      0.29147474	      0.91263901	      0.15995702	     -1.84939589	      1.60301023	      2.67419081	    -40.64613033	      0.47599868	     17.60063309	     19.75292491	     -0.04048280	     -8.91071261	    -21.25406565	      3.11360702	      4.24580896	     -5.69593589	     -3.94445659	      6.48678867
      2.97000000	     -0.69802581	     -0.63545286	     -3.69342101	      0.28191213	      0.91090106	      0.16150077	     -2.19492690	      1.79624255	      3.01656020	    -39.10521887	      1.30926472	     16.49841838	     20.55602911	     -0.16480794	     -9.06783226	    -21.29589230	      2.81550988	      4.83275034	     -5.73650091	     -4.15938291	      6.92019308
      2.98000000	     -0.81968651	     -0.50202735	     -4.02445767	      0.27209616	      0.90908562	      0.16306743	     -2.43054625	      1.94465184	      3.37356810	    -37.70492009	      2.38727230	     15.16773124	     21.33556043	     -0.26708579	     -9.28011772	    -21.28673114	      2.57858162	      5.35411603	     -5.81029651	     -4.40025466	      7.36640882
      2.99000000	     -0.93444096	     -0.34669881	     -4.36473289	      0.26205050	      0.90721602	      0.16459887	     -2.55175520	      2.05138289	      3.66153683	    -36.48403136	      3.73079564	     13.57152690	     22.08484673	     -0.34092561	     -9.48363435	    -21.20521226	      2.38725966	      5.82657173	     -5.91408483	     -4.65004407	      7.79886292
      3.00000000	     -1.04112162	     -0.17022712	     -4.72432998	      0.25182151	      0.90533341	      0.16611349	     -2.56295370	      2.12215797	      3.90137479	    -35.45313566	      5.31771232	     11.78047802	     22.78936992	     -0.39045295	     -9.69257964	    -21.03834229	      2.26584922	      6.23276521	     -6.04131172	     -4.90979115	      8.22764498
      3.01000000	     -1.13031388	      0.00420366	     -5.07659600	      0.24146310	      0.90349760	      0.16757560	     -2.49564927	      2.18038562	      4.05636588	    -34.57691484	      7.09254549	      9.86015974	     23.43486720	     -0.42946153	     -9.88901060	    -20.78599570	      2.23889097	      6.56729377	     -6.20149951	     -5.15184946	      8.62435230
      3.02000000	     -1.20039498	      0.16572610	     -5.42273099	      0.23103823	      0.90176433	      0.16898304	     -2.37239072	      2.23725553	      4.13537126	    -33.80535922	      8.95895139	      7.90615865	     24.00292632	     -0.47098539	    -10.09629579	    -20.43155270	      2.32437574	      6.82984251	     -6.38801405	     -5.36330947	      8.99475867
      3.03000000	     -1.24725502	      0.29398785	     -5.75293418	      0.22059817	      0.90020022	      0.17033785	     -2.23159727	      2.31820628	      4.15144048	    -33.06556874	     10.81385384	      5.96798490	     24.48812418	     -0.53594456	    -10.31971107	    -19.98761181	      2.52593226	      7.02549790	     -6.60301905	     -5.52437920	      9.32797041
      3.04000000	     -1.27118801	      0.36625638	     -6.07607387	      0.21019331	      0.89884522	      0.17164737	     -2.08947211	      2.43988078	      4.10224082	    -32.32236818	     12.57970176	      4.12833995	     24.87915131	     -0.65675249	    -10.59551623	    -19.45188921	      2.83057200	      7.16211282	     -6.84215425	     -5.61009635	      9.64781896
      3.05000000	     -1.27792423	      0.37402194	     -6.38939057	      0.19985812	      0.89772957	      0.17291353	     -1.95642601	      2.61446955	      4.00636104	    -31.54583792	     14.18002770	      2.38451234	     25.18289540	     -0.84763292	    -10.96855503	    -18.83897181	      3.21808793	      7.26189175	     -7.09757300	     -5.61281605	      9.95183286
      3.06000000	     -1.27741775	      0.31301413	     -6.70053488	      0.18963284	      0.89685685	      0.17414559	     -1.83121217	      2.84573505	      3.88557451	    -30.72479228	     15.56950353	      0.77076238	     25.40969963	     -1.12034864	    -11.46674735	    -18.16640475	      3.64791961	      7.34670125	     -7.35239964	     -5.53010339	     10.24667302
      3.07000000	     -1.27786442	      0.18694402	     -7.01281986	      0.17953630	      0.89621398	      0.17534494	     -1.70208897	      3.13052711	      3.75086622	    -29.87250505	     16.72428561	     -0.69690732	     25.57836667	     -1.47491600	    -12.11045175	    -17.46976118	      4.08163226	      7.44146809	     -7.59581932	     -5.36801169	     10.53569975
      3.08000000	     -1.28850063	      0.00256678	     -7.32945014	      0.16960010	      0.89577169	      0.17650407	     -1.55879574	      3.46100143	      3.61236557	    -29.00357151	     17.65482593	     -2.01126761	     25.71081780	     -1.90624034	    -12.88892176	    -16.79338565	      4.48042476	      7.56792708	     -7.81378212	     -5.13412202	     10.81825630
      3.09000000	     -1.31117364	     -0.22971578	     -7.65294606	      0.15980586	      0.89550774	      0.17763099	     -1.38172367	      3.83404896	      3.50497241	    -28.15869170	     18.35274898	     -3.12726054	     25.82912062	     -2.40589640	    -13.78974085	    -16.19702149	      4.81602036	      7.73726801	     -8.00926618	     -4.84510478	     11.08586878
